<?xml version="1.0" encoding="UTF-8"?>
<svg version="1.1" viewBox="0 0 24 24" xmlns="http://www.w3.org/2000/svg">
 <rect width="24" height="24" ry="3.4645" fill="#ff2a2a"/>
 <path d="m8.4796 12.744-2.5944 2.6206c-0.28827 0.26207-0.67263 0.43678-1.0919 0.43678a1.5287 1.5287 0 0 1-1.5287-1.5287v-0.21839l0.87355-6.4468c0.18344-2.0179 1.8694-3.599 3.931-3.599h7.8619c2.0616 0 3.7475 1.5811 3.931 3.599l0.87355 6.4468v0.21839a1.5287 1.5287 0 0 1-1.5287 1.5287c-0.4193 0-0.80366-0.17471-1.0919-0.43678l-2.5944-2.6206h-7.0408m-0.84734-6.9884v1.7471h-1.7471v0.87355h1.7471v1.7471h0.87355v-1.7471h1.7471v-0.87355h-1.7471v-1.7471h-0.87355m8.2987 0a0.65516 0.65516 0 0 0-0.65516 0.65516 0.65516 0.65516 0 0 0 0.65516 0.65516 0.65516 0.65516 0 0 0 0.65516-0.65516 0.65516 0.65516 0 0 0-0.65516-0.65516m-1.5287 1.5287a0.65516 0.65516 0 0 0-0.65516 0.65516 0.65516 0.65516 0 0 0 0.65516 0.65516 0.65516 0.65516 0 0 0 0.65516-0.65516 0.65516 0.65516 0 0 0-0.65516-0.65516m3.0574 0a0.65516 0.65516 0 0 0-0.65516 0.65516 0.65516 0.65516 0 0 0 0.65516 0.65516 0.65516 0.65516 0 0 0 0.65516-0.65516 0.65516 0.65516 0 0 0-0.65516-0.65516m-1.5287 1.5287a0.65516 0.65516 0 0 0-0.65516 0.65516 0.65516 0.65516 0 0 0 0.65516 0.65516 0.65516 0.65516 0 0 0 0.65516-0.65516 0.65516 0.65516 0 0 0-0.65516-0.65516z" fill="#f9f9f9" stroke-width=".87355"/>
 <path d="m8.9348 16.266v2.2989h1.5326l1.9158 1.9158v-6.1305l-1.9158 1.9158h-1.5326m4.8086-2.502-0.40231 0.40614 0.93106 0.94639-1.1226 1.1495 1.1226 1.1495-1.1226 1.1495 1.1226 1.1495-0.93106 0.94639 0.40231 0.40614 1.3219-1.3525-1.1226-1.1495 1.1226-1.1495-1.1226-1.1495 1.1226-1.1495z" fill="#f9f9f9" stroke-width=".38315"/>
</svg>
